<?xml version="1.0" encoding="UTF-8" standalone="no"?>
<svg
   xmlns:dc="http://purl.org/dc/elements/1.1/"
   xmlns:cc="http://creativecommons.org/ns#"
   xmlns:rdf="http://www.w3.org/1999/02/22-rdf-syntax-ns#"
   xmlns:svg="http://www.w3.org/2000/svg"
   xmlns="http://www.w3.org/2000/svg"
   xmlns:sodipodi="http://sodipodi.sourceforge.net/DTD/sodipodi-0.dtd"
   xmlns:inkscape="http://www.inkscape.org/namespaces/inkscape"
   inkscape:export-ydpi="332.41"
   inkscape:export-xdpi="332.41"
   inkscape:export-filename="/Users/hauswirm/OneDrive - USI/LUCE research group/LUCE-logo.png"
   sodipodi:docname="LUCE.svg"
   inkscape:version="1.0.1 (c497b03c, 2020-09-10)"
   version="1.1"
   id="svg2"
   viewBox="0 0 343.81932 135.02882"
   height="38.108135mm"
   width="97.033455mm">
  <defs
     id="defs4" />
  <sodipodi:namedview
     inkscape:document-rotation="0"
     inkscape:guide-bbox="true"
     showguides="true"
     fit-margin-bottom="0"
     fit-margin-right="0"
     fit-margin-left="0"
     fit-margin-top="0"
     inkscape:window-maximized="0"
     inkscape:window-y="23"
     inkscape:window-x="41"
     inkscape:window-height="1647"
     inkscape:window-width="1737"
     showgrid="false"
     inkscape:current-layer="text8568"
     inkscape:document-units="px"
     inkscape:cy="72.015374"
     inkscape:cx="183.37031"
     inkscape:zoom="3.2638872"
     inkscape:pageshadow="2"
     inkscape:pageopacity="0.0"
     borderopacity="1.0"
     bordercolor="#666666"
     pagecolor="#ffffff"
     id="base" />
  <metadata
     id="metadata7">
    <rdf:RDF>
      <cc:Work
         rdf:about="">
        <dc:format>image/svg+xml</dc:format>
        <dc:type
           rdf:resource="http://purl.org/dc/dcmitype/StillImage" />
        <dc:title />
      </cc:Work>
    </rdf:RDF>
  </metadata>
  <g
     transform="translate(4664.2491,854.09787)"
     id="layer1"
     inkscape:groupmode="layer"
     inkscape:label="Layer 1">
    <g
       id="g6936"
       transform="translate(-924.17075,-476.61874)">
      <g
         aria-label="LuCE"
         id="text8568"
         style="font-style:normal;font-weight:normal;font-size:9.23487px;line-height:0%;font-family:sans-serif;letter-spacing:0px;word-spacing:0px;fill:#ffc001;fill-opacity:1;stroke:none;stroke-width:0.769572px;stroke-linecap:butt;stroke-linejoin:miter;stroke-opacity:1">
        <path
           d="m -3729.462,-348.2021 h 44.1734 v 5.11765 q -2.8282,1.48143 -6.3297,2.55883 -3.3669,0.94272 -6.5991,1.34675 v 76.4954 h 25.9923 l 9.0232,-24.10683 h 5.5217 q 0.5387,3.09753 0.9427,7.27245 0.5387,4.17493 0.808,8.75388 0.2694,4.57895 0.4041,9.02322 0.1346,4.44428 0,7.81115 h -73.9366 v -5.11765 q 3.0975,-1.6161 5.791,-2.55882 2.8282,-0.94273 5.2523,-1.34675 v -76.22605 q -6.599,-1.0774 -11.0433,-3.90558 z"
           style="fill:#000000"
           id="path847" />
        <path
           d="m -3643.9455,-280.59525 q 0,-8.48452 0.404,-15.75697 0.4041,-7.27245 0.4041,-15.35295 l -8.8886,-1.0774 v -5.25233 q 2.1548,-0.80805 5.2523,-1.6161 3.2322,-0.80805 6.5991,-1.34675 3.3669,-0.67337 6.4644,-1.0774 3.2322,-0.5387 5.387,-0.80805 h 4.579 q 0,10.10063 -0.4041,19.9319 -0.404,9.6966 -0.404,19.12385 0,11.04335 2.1548,15.89165 2.2895,4.8483 8.3499,4.8483 4.1749,0 7.6764,-3.09752 3.6363,-3.2322 5.9257,-10.2353 v -35.28485 l -8.7538,-1.0774 v -5.25233 q 2.0201,-0.80805 4.9829,-1.6161 3.0976,-0.80805 6.3298,-1.34675 3.3668,-0.67337 6.599,-1.0774 3.2322,-0.5387 5.6564,-0.80805 h 4.5789 v 59.39168 l 8.8886,1.0774 v 4.71362 q -1.8855,0.80805 -4.7136,1.6161 -2.8282,0.80805 -5.9257,1.6161 -3.0976,0.67338 -6.1951,1.0774 -2.9628,0.5387 -5.387,0.80805 h -4.5789 l -0.9428,-16.02632 h -0.5387 q -0.6733,2.82817 -2.4241,5.79102 -1.7508,2.82818 -4.579,5.25233 -2.6935,2.28947 -6.4644,3.7709 -3.7709,1.48142 -8.3498,1.48142 -5.1177,0 -9.1579,-1.34675 -3.9056,-1.21207 -6.7338,-4.44427 -2.8281,-3.2322 -4.3096,-8.6192 -1.4814,-5.52168 -1.4814,-13.87153 z"
           style="font-style:normal;font-variant:normal;font-weight:bold;font-stretch:normal;font-size:134.675px;line-height:1.25;font-family:'PT Serif';-inkscape-font-specification:'PT Serif Bold';fill:#ffc001;fill-opacity:1;stroke-width:0.769572px"
           id="path849" />
        <path
           d="m -3497.1371,-282.21135 h 5.5217 q 0.5387,2.1548 0.9427,5.25233 0.5387,2.96285 0.808,6.4644 0.4041,3.36687 0.5387,6.73375 0.1347,3.36687 0.1347,6.06037 -4.7136,2.96285 -11.8514,4.17493 -7.0031,1.21207 -14.4102,1.21207 -11.178,0 -20.3359,-2.6935 -9.0233,-2.82817 -15.4877,-8.75387 -6.3297,-6.06038 -9.8312,-15.21828 -3.5016,-9.29257 -3.5016,-22.22137 0,-12.79413 3.7709,-21.95203 3.9056,-9.29257 10.37,-15.21827 6.4644,-5.9257 14.9489,-8.6192 8.6192,-2.82818 18.0465,-2.82818 8.8885,0 16.0263,1.34675 7.2724,1.21208 11.8514,3.36688 0,2.1548 -0.2694,5.52167 -0.1346,3.36688 -0.6733,7.13778 -0.4041,3.63622 -1.0774,7.27245 -0.5387,3.50155 -1.0774,5.9257 h -5.6564 l -7.4071,-20.33593 q -1.2121,-0.67337 -3.9056,-1.0774 -2.6935,-0.40402 -5.5217,-0.40402 -5.5216,0 -10.3699,2.28947 -4.8483,2.1548 -8.6192,7.0031 -3.7709,4.8483 -5.9257,12.52478 -2.1548,7.5418 -2.1548,18.18112 0,19.25853 7.6764,29.6285 7.6765,10.36998 20.8747,10.36998 3.7709,0 6.3297,-0.5387 2.6935,-0.67338 3.6362,-1.75078 z"
           style="fill:#000000"
           id="path851" />
        <path
           d="m -3408.4747,-348.2021 q -0.2693,6.06038 -0.9427,12.52478 -0.6734,6.4644 -1.7508,12.12075 h -5.5217 l -6.195,-15.89165 h -25.1842 v 32.99537 h 16.4303 l 5.9257,-10.36997 h 4.3096 q 0.6734,6.59907 0.6734,14.67957 0,8.0805 -0.6734,15.0836 h -4.3096 l -5.9257,-10.63932 h -16.4303 v 35.0155 h 26.2616 l 7.1378,-17.10373 h 5.5216 q 0.5387,2.55883 1.0774,5.79103 0.5387,3.2322 0.8081,6.73375 0.404,3.36687 0.5387,6.86842 0.2693,3.50155 0.2693,6.4644 h -72.8591 v -5.11765 q 2.2894,-1.21207 5.1176,-2.28947 2.8282,-1.0774 5.9257,-1.6161 v -76.22605 q -2.6935,-0.5387 -5.791,-1.48143 -2.9629,-1.0774 -5.2523,-2.42415 v -5.11765 z"
           style="fill:#000000"
           id="path853" />
      </g>
      <path
         inkscape:export-ydpi="209.00999"
         inkscape:export-xdpi="209.00999"
         style="fill:#ffc001;fill-opacity:1;fill-rule:evenodd;stroke:none;stroke-width:0.9375px;stroke-linecap:butt;stroke-linejoin:miter;stroke-opacity:1"
         d="m -3661.3478,-353.82762 c 5.8056,7.75671 12.1546,15.24172 19.6395,22.15879 3.0606,-0.0418 5.8688,-0.58863 8.0904,-2.3084 -4.7685,-8.70962 -9.7995,-17.41925 -16.2334,-26.12888 -3.8322,0.56074 -7.6643,2.3549 -11.4965,6.27849 z"
         id="path8578"
         inkscape:connector-curvature="0"
         sodipodi:nodetypes="ccccc" />
      <path
         inkscape:export-ydpi="209.00999"
         inkscape:export-xdpi="209.00999"
         inkscape:connector-curvature="0"
         id="path8580"
         d="m -3622.3543,-365.92089 c 0.6039,9.07047 2.8672,18.14094 5.1132,27.21142 3.1152,0.9093 5.4892,0.33628 7.7747,-0.41367 -0.121,-9.02542 -0.086,-18.05084 1.4507,-27.07625 -4.7795,-1.91488 -9.5591,-2.01529 -14.3386,0.2785 z"
         style="fill:#ffc001;fill-opacity:1;fill-rule:evenodd;stroke:none;stroke-width:0.9375px;stroke-linecap:butt;stroke-linejoin:miter;stroke-opacity:1"
         sodipodi:nodetypes="ccccc" />
      <path
         inkscape:export-ydpi="209.00999"
         inkscape:export-xdpi="209.00999"
         style="fill:#ffc001;fill-opacity:1;fill-rule:evenodd;stroke:none;stroke-width:0.9375px;stroke-linecap:butt;stroke-linejoin:miter;stroke-opacity:1"
         d="m -3576.4286,-361.36926 c -6.848,7.14967 -12.4504,15.54491 -17.6236,24.36932 2.9074,1.50397 5.8147,2.29201 8.7221,2.11265 6.1572,-6.90964 12.8767,-14.38147 20.7138,-22.971 -3.1582,-3.11851 -6.9718,-4.59822 -11.8123,-3.51097 z"
         id="path8582"
         inkscape:connector-curvature="0"
         sodipodi:nodetypes="ccccc" />
      <rect
         inkscape:export-ydpi="209.00999"
         inkscape:export-xdpi="209.00999"
         y="-377.47913"
         x="-3740.0784"
         height="135.02882"
         width="343.81934"
         id="rect8655"
         style="fill:none;fill-opacity:1;stroke:none;stroke-width:1.25;stroke-linecap:round;stroke-linejoin:round;stroke-miterlimit:4;stroke-dasharray:none;stroke-dashoffset:0;stroke-opacity:1" />
    </g>
  </g>
</svg>
